<?xml version="1.0" encoding="UTF-8"?>
<svg version="1.1" xmlns="http://www.w3.org/2000/svg" width="91" height="87">
<path d="M0 0 C30.03 0 60.06 0 91 0 C91 28.71 91 57.42 91 87 C60.97 87 30.94 87 0 87 C0 58.29 0 29.58 0 0 Z " fill="#0D0D12" transform="translate(0,0)"/>
<path d="M0 0 C6.27 0 12.54 0 19 0 C23.97360565 9.39780137 27.81612461 19.19953738 31.75 29.0625 C32.77421828 31.62496821 33.7996673 34.18692012 34.82818604 36.74766541 C35.46409306 38.33137281 36.09743859 39.91611162 36.72796631 41.50196838 C37.93653609 45.00948543 37.93653609 45.00948543 40 48 C40.23581284 47.42814972 40.47162567 46.85629944 40.71458435 46.26712036 C43.16307806 40.32989259 45.61260666 34.39309258 48.06274414 28.45654297 C48.97772496 26.23920533 49.89243941 24.02175774 50.80688477 21.80419922 C52.11925821 18.62178253 53.43258056 15.43975891 54.74609375 12.2578125 C55.15653427 11.26194122 55.56697479 10.26606995 55.98985291 9.24002075 C56.37017166 8.31921722 56.75049042 7.3984137 57.14233398 6.44970703 C57.47764633 5.6369632 57.81295868 4.82421936 58.15843201 3.98684692 C58.72937877 2.63890614 59.34533603 1.30932794 60 0 C66.27 0 72.54 0 79 0 C79 24.09 79 48.18 79 73 C74.05 73 69.1 73 64 73 C63.67 58.15 63.34 43.3 63 28 C57.06 42.85 51.12 57.7 45 73 C41.7 73 38.4 73 35 73 C30.51208648 63.4149151 26.58962989 53.64557376 22.6875 43.8125 C20.480625 38.264375 18.27375 32.71625 16 27 C15.67 42.18 15.34 57.36 15 73 C10.05 73 5.1 73 0 73 C0 48.91 0 24.82 0 0 Z " fill="#145BF6" transform="translate(5,7)"/>
<path d="M0 0 C0.33 0 0.66 0 1 0 C1 15.51 1 31.02 1 47 C0.67 47 0.34 47 0 47 C-0.33 34.13 -0.66 21.26 -1 8 C-1.99 8.495 -1.99 8.495 -3 9 C-2.01 6.03 -1.02 3.06 0 0 Z " fill="#0D1322" transform="translate(68,33)"/>
<path d="M0 0 C0.99 1.32 1.98 2.64 3 4 C2.67 4.99 2.34 5.98 2 7 C1.88734453 8.36515314 1.82417414 9.73477212 1.79467773 11.10424805 C1.77473251 11.92487228 1.75478729 12.74549652 1.73423767 13.59098816 C1.71752518 14.47232925 1.70081268 15.35367035 1.68359375 16.26171875 C1.66281265 17.16751175 1.64203156 18.07330475 1.62062073 19.00654602 C1.55523442 21.90012016 1.49629096 24.79378507 1.4375 27.6875 C1.3943044 29.64909793 1.35068977 31.61068668 1.30664062 33.57226562 C1.19956418 38.38141739 1.09826586 43.19066046 1 48 C0.67 48 0.34 48 0 48 C0 32.16 0 16.32 0 0 Z " fill="#0E1E42" transform="translate(20,32)"/>
</svg>
